<?xml version="1.0" encoding="UTF-8"?>
<svg width="17px" height="22px" viewBox="0 0 17 22" version="1.1" xmlns="http://www.w3.org/2000/svg" xmlns:xlink="http://www.w3.org/1999/xlink">
    <title>iconoir:bbq</title>
    <g id="Page-1" stroke="none" stroke-width="1" fill="none" fill-rule="evenodd">
        <g id="iconoir:bbq" transform="translate(-4.000000, -1.000000)">
            <rect id="ViewBox" x="0" y="0" width="24" height="24"></rect>
            <g id="Group" transform="translate(5.000000, 2.000000)" stroke="#000000" stroke-width="1.5">
                <path d="M3.5,12.5 L0,20 M3,4 C3,4 4,2.939 4,2 C4,0.667 3,0 3,0 M7,4 C7,4 8,2.939 8,2 C8,0.667 7,0 7,0 M11,4 C11,4 12,2.939 12,2 C12,0.667 11,0 11,0" id="Shape" stroke-linecap="round" stroke-linejoin="round"></path>
                <line x1="11.5" y1="15.5" x2="2.5" y2="15.5" id="Path" stroke-linejoin="round"></line>
                <path d="M10.5,12.5 L12.6,17 M13.5,20 C14.3284271,20 15,19.3284271 15,18.5 C15,17.6715729 14.3284271,17 13.5,17 C12.6715729,17 12,17.6715729 12,18.5 C12,19.3284271 12.6715729,20 13.5,20 Z" id="Shape" stroke-linecap="round" stroke-linejoin="round"></path>
                <path d="M7,13 C10.6337143,13.0003954 13.6635388,10.2203414 13.975,6.6 C13.985432,6.4422736 13.9290769,6.28742728 13.8197067,6.17330187 C13.7103366,6.05917647 13.5580274,5.99628621 13.4,6 L0.6,6 C0.441972628,5.99628621 0.289663436,6.05917647 0.18029326,6.17330187 C0.0709230835,6.28742728 0.0145680418,6.4422736 0.025,6.6 C0.336461209,10.2203414 3.36628567,13.0003954 7,13 Z" id="Path"></path>
            </g>
        </g>
    </g>
</svg>