<?xml version="1.0" encoding="UTF-8"?>
<svg width="20px" height="21px" viewBox="0 0 20 21" version="1.1" xmlns="http://www.w3.org/2000/svg" xmlns:xlink="http://www.w3.org/1999/xlink">
    <title>fluent:beach-48-regular</title>
    <g id="Page-1" stroke="none" stroke-width="1" fill="none" fill-rule="evenodd">
        <g id="fluent:beach-48-regular" transform="translate(-2.000000, -2.000000)">
            <rect id="ViewBox" x="0" y="0" width="24" height="24"></rect>
            <path d="M20.8795,12.82 L21.0615,12.5 C22.995,9.152 21.848,4.871 18.5,2.938 C15.1515,1.005 10.8705,2.152 8.9375,5.5 L8.8745,5.609 C8.66764373,5.96513606 8.78391372,6.42132348 9.136,6.635 L13.997,9.572 L11.304,14.031 C8.949,14.2385 6.9365,15.4885 5.854,17.257 C6.30336423,17.215721 6.74965809,17.3631574 7.086,17.664 C8.072,16.246 9.852,15.25 12,15.25 C14.1485,15.25 15.929,16.2465 16.915,17.665 C17.2508518,17.3638818 17.6967549,17.2159116 18.146,17.2565 C17.0735,15.5045 15.088,14.2615 12.7605,14.0365 L15.0665,10.2185 L19.832,13.0975 C20.0068614,13.2025988 20.2168129,13.2324581 20.4140425,13.180278 C20.6112721,13.1280979 20.7789893,12.9983205 20.879,12.8205 L20.8795,12.82 Z M18.838,4.7175 C20.793,6.4665 21.3475,9.385 20.042,11.7645 L17.605,10.292 L17.6135,10.278 C17.6735,10.183 17.7545,10.0475 17.8475,9.8745 C18.0335,9.529 18.268,9.0325 18.469,8.4195 C18.789,7.445 19.028,6.161 18.838,4.7175 L18.838,4.7175 Z M16.71,3.509 C15.6355,3.992 14.708,4.7915 14.02,5.504 C13.4983103,6.04589101 13.0196915,6.62765607 12.5885,7.244 L12.58,7.2555 L10.2075,5.822 C11.635,3.665 14.308,2.7585 16.71,3.509 Z M13.6525,7.9035 C14.0354552,7.36209928 14.4586527,6.85031777 14.9185,6.3725 C15.6575,5.6075 16.573,4.8675 17.541,4.5205 C17.7965,5.879 17.586,7.102 17.2815,8.0295 C17.1401014,8.4616676 16.9610826,8.88060513 16.7465,9.2815 C16.6803863,9.40516621 16.6098406,9.52641144 16.535,9.645 L13.6525,7.9035 Z M18.3495,18.357 C18.2494683,18.2896329 18.1320822,18.2526459 18.0115,18.2505 L17.987,18.2505 C17.7229976,18.2563754 17.4910233,18.4271564 17.407,18.6775 L17.4065,18.679 C17.385,18.737 16.7585,20.5 15,20.5 C13.24,20.5 12.6175,18.75 12.593,18.677 C12.5079961,18.4216742 12.269104,18.2494234 12,18.2494234 C11.730896,18.2494234 11.4920039,18.4216742 11.407,18.677 L11.4065,18.6785 C11.385,18.737 10.7585,20.5 9,20.5 C7.24,20.5 6.6175,18.75 6.595,18.677 C6.55444904,18.5546204 6.47687249,18.4478653 6.373,18.3715 C6.26920945,18.2951115 6.14434303,18.2526744 6.0155,18.25 L6.0045,18.25 C5.74427003,18.2489822 5.51064059,18.4093161 5.418,18.6525 C5.4095,18.675 4.549,20.875 2.627,20.875 C2.28182203,20.875 2.002,21.154822 2.002,21.5 C2.002,21.845178 2.28182203,22.125 2.627,22.125 C4.00805221,22.0847656 5.27598825,21.3517459 6,20.175 C6.68138748,21.1592649 7.80210725,21.7468395 8.99921453,21.7474381 C10.1963218,21.7480366 11.3176286,21.161583 12,20.178 C12.6823714,21.161583 13.8036782,21.7480366 15.0007855,21.7474381 C16.1978927,21.7468395 17.3186125,21.1592649 18,20.175 C18.7243318,21.3523955 19.9932047,22.0855221 21.375,22.125 C21.720178,22.125 22,21.845178 22,21.5 C22,21.154822 21.720178,20.875 21.375,20.875 C20.135,20.875 19.331,19.9435 18.918,19.2865 L18.918,19.2855 C18.7893123,19.0842062 18.6777537,18.8724624 18.5845,18.6525 C18.538591,18.5319457 18.4565034,18.4285503 18.3495,18.3565 L18.3495,18.357 Z" id="Shape" fill="#000000" fill-rule="nonzero"></path>
        </g>
    </g>
</svg>