<?xml version="1.0" encoding="UTF-8"?>
<svg width="25px" height="25px" viewBox="0 0 25 25" version="1.1" xmlns="http://www.w3.org/2000/svg" xmlns:xlink="http://www.w3.org/1999/xlink">
    <title>icon-park-outline:bottle-two</title>
    <g id="Page-1" stroke="none" stroke-width="1" fill="none" fill-rule="evenodd">
        <g id="icon-park-outline:bottle-two" transform="translate(0.211995, 0.500000)">
            <rect id="ViewBox" x="0" y="0" width="24" height="24"></rect>
            <g id="Group" stroke-linecap="round" transform="translate(7.500000, 2.000000)" stroke="#000000" stroke-width="1.5">
                <path d="M0,8.78 C0,7.05546863 0.904795219,5.45737852 2.3835,4.57 C2.4557637,4.52674779 2.5,4.44871874 2.5,4.3645 L2.5,0 L6.5,0 L6.5,4.3645 C6.5,4.4485 6.544,4.5265 6.6165,4.5695 C8.09535761,5.45697022 9.00014235,7.0552904 9,8.78 L9,19 C9,19.5522847 8.55228475,20 8,20 L1,20 C0.44771525,20 0,19.5522847 0,19 L0,8.78 Z" id="Path" stroke-linejoin="round"></path>
                <line x1="2.5" y1="3" x2="6.5" y2="3" id="Path"></line>
                <path d="M9,9.5 L4.5,9.5 L4.5,17 L9,17 M9,18 L9,8.5 M2.5,4 L2.5,2 M6.5,4 L6.5,2" id="Shape" stroke-linejoin="round"></path>
            </g>
        </g>
    </g>
</svg>