<?xml version="1.0" encoding="UTF-8"?>
<svg width="25px" height="24px" viewBox="0 0 25 24" version="1.1" xmlns="http://www.w3.org/2000/svg" xmlns:xlink="http://www.w3.org/1999/xlink">
    <title>la:spray-can</title>
    <g id="Page-1" stroke="none" stroke-width="1" fill="none" fill-rule="evenodd">
        <g id="la:spray-can" transform="translate(0.211995, 0.000000)">
            <rect id="ViewBox" x="0" y="0" width="24" height="24"></rect>
            <path d="M9,2.5 L9,5 C9,5.55228475 9.44771525,6 10,6 L10.5,6 L10.5,6 L10.5,6.79725 C7.4235,7.125 6.09375,9.3975 6.09375,9.3975 L6,9.5625 L6,21 C6,21.8284271 6.67157288,22.5 7.5,22.5 L15,22.5 C15.8284271,22.5 16.5,21.8284271 16.5,21 L16.5,9.5625 L16.5,9.5625 L16.40625,9.39825 C16.40625,9.39825 15.0765,7.125 12,6.7965 L12,6 L12.5,6 C13.0522847,6 13.5,5.55228475 13.5,5 L13.5,2.5 C13.5,1.94771525 13.0522847,1.5 12.5,1.5 L10,1.5 C9.44771525,1.5 9,1.94771525 9,2.5 Z M18,1.5 C17.5875,1.5 17.25,1.8375 17.25,2.25 C17.25,2.6625 17.5875,3 18,3 C18.4125,3 18.75,2.6625 18.75,2.25 C18.75,1.8375 18.4125,1.5 18,1.5 Z M11,3 L11.5,3 C11.7761424,3 12,3.22385763 12,3.5 L12,4 C12,4.27614237 11.7761424,4.5 11.5,4.5 L11,4.5 C10.7238576,4.5 10.5,4.27614237 10.5,4 L10.5,3.5 C10.5,3.22385763 10.7238576,3 11,3 Z M15.75,3 C15.3375,3 15,3.3375 15,3.75 C15,4.1625 15.3375,4.5 15.75,4.5 C16.1625,4.5 16.5,4.1625 16.5,3.75 C16.5,3.3375 16.1625,3 15.75,3 Z M18,4.5 C17.5875,4.5 17.25,4.8375 17.25,5.25 C17.25,5.6625 17.5875,6 18,6 C18.4125,6 18.75,5.6625 18.75,5.25 C18.75,4.8375 18.4125,4.5 18,4.5 Z M11.25,8.25 C12.5535,8.25 13.4325,8.61 14.016,9 L8.48475,9 C9.0675,8.61 9.9465,8.25 11.25,8.25 L11.25,8.25 Z M8,10.5 L14.5,10.5 C14.7761424,10.5 15,10.7238576 15,11 L15,20.5 C15,20.7761424 14.7761424,21 14.5,21 L8,21 C7.72385763,21 7.5,20.7761424 7.5,20.5 L7.5,11 C7.5,10.7238576 7.72385763,10.5 8,10.5 Z M11.250375,12.984375 C12.7777875,12.984375 14.016,14.2225875 14.016,15.75 C14.016,17.2774125 12.7777875,18.515625 11.250375,18.515625 C9.72296249,18.515625 8.48475,17.2774125 8.48475,15.75 C8.48475,14.2225875 9.72296249,12.984375 11.250375,12.984375 Z M9.75306562,15.0348094 L9.7525125,15.0348094 C9.44881677,15.6695429 9.57846622,16.4268031 10.0760191,16.9243559 C10.5735719,17.4219088 11.3308321,17.5515582 11.9655656,17.2478625 L9.75306562,15.0348094 Z M11.250375,14.0906249 C10.9942781,14.0906249 10.7514562,14.1487031 10.5351844,14.2526906 L10.5351844,14.2526906 L12.7482375,16.4651906 C12.9938514,15.9509675 12.9584135,15.3466819 12.6543774,14.8646926 C12.3503413,14.3827033 11.8202448,14.0904456 11.250375,14.0906249 Z" id="Shape" fill="#000000" fill-rule="nonzero"></path>
        </g>
    </g>
</svg>