<?xml version="1.0" encoding="UTF-8"?>
<svg width="21px" height="21px" viewBox="0 0 21 21" version="1.1" xmlns="http://www.w3.org/2000/svg" xmlns:xlink="http://www.w3.org/1999/xlink">
    <title>icon-park:clothes-sweater</title>
    <g id="Page-1" stroke="none" stroke-width="1" fill="none" fill-rule="evenodd">
        <g id="icon-park:clothes-sweater" transform="translate(0.711995, 0.500000)">
            <rect id="ViewBox" x="0" y="0" width="19.5" height="19.5"></rect>
            <g id="Group" stroke-linecap="round" stroke-linejoin="round" transform="translate(1.625000, 1.625000)" stroke="#000000" stroke-width="1.5">
                <path d="M2.84375,13.40625 L1,13.40625 C0.44771525,13.40625 2.8967998e-16,12.9585347 0,12.40625 L0,3.25 L0,3.25 C0.54005353,2.43857542 1.21713686,1.76149209 2.03125,1.21875 C2.84536314,0.676007909 3.7932798,0.269757909 4.875,0 L11.375,0 C12.4599465,0.271908758 13.4078631,0.678158758 14.21875,1.21875 C15.0296369,1.75934124 15.7067202,2.43642458 16.25,3.25 L16.25,12.40625 C16.25,12.9585347 15.8022847,13.40625 15.25,13.40625 L13.40625,13.40625 L13.40625,13.40625" id="Path"></path>
                <polyline id="Path" points="13.40625 6.09375 13.40625 13.40625 13.40625 16.25 2.84375 16.25 2.84375 13.40625 2.84375 6.09375"></polyline>
                <line x1="8.125" y1="6.90625" x2="8.125" y2="16.25" id="Path"></line>
                <line x1="4.875" y1="0.347436905" x2="8.125" y2="6.90625" id="Path"></line>
                <line x1="11.375" y1="0.347436905" x2="8.125" y2="6.90625" id="Path"></line>
            </g>
        </g>
    </g>
</svg>