<?xml version="1.0" encoding="UTF-8"?>
<svg width="25px" height="24px" viewBox="0 0 25 24" version="1.1" xmlns="http://www.w3.org/2000/svg" xmlns:xlink="http://www.w3.org/1999/xlink">
    <title>icon-park-outline:sandals</title>
    <g id="Page-1" stroke="none" stroke-width="1" fill="none" fill-rule="evenodd">
        <g id="icon-park-outline:sandals" transform="translate(0.211995, 0.000000)">
            <rect id="ViewBox" x="0" y="0" width="24" height="24"></rect>
            <g id="Group" stroke-linecap="round" transform="translate(2.739102, 2.800152)" stroke="#000000" stroke-width="1.5">
                <path d="M2.86089817,0.626848346 L2.50689817,0.739348346 C0.763398172,1.29134835 -0.261101828,3.09434835 0.057898172,4.89534835 C0.422898172,6.95284835 0.703398172,8.91534835 1.10539817,10.7258483 C1.49789817,12.4943483 1.32889817,14.0703483 1.23039817,15.7418483 C1.13439817,17.3748483 2.43489817,18.6633483 4.06639817,18.7768483 C6.37789817,18.9373483 8.15739817,16.7358483 7.71489817,14.4618483 C7.37289817,12.7038483 7.11389817,10.8028483 7.23039817,9.44984835 C7.35539817,7.99784835 7.36889817,5.80484835 7.34539817,3.82434835 C7.31789817,1.51634835 5.06139817,-0.0696516542 2.86139817,0.626848346 L2.86089817,0.626848346 Z M14.6658982,0.0613483458 L14.2808982,0.133348346 C12.5533982,0.457348346 11.3348982,2.01384835 11.3178982,3.77184835 C11.2963982,6.05034835 11.1763982,8.27484835 11.2608982,10.1998483 C11.3388982,11.9763483 11.0423982,13.2763483 10.7523982,14.7263483 C10.4388982,16.2913483 11.4738982,17.7483483 13.0223982,18.1338483 C15.2648982,18.6918483 17.3783982,16.7848483 17.3108982,14.4748483 C17.2643982,12.8873483 17.3258982,11.2188483 17.6513982,9.99984835 C18.0463982,8.51984835 18.4248982,6.04834835 18.7158982,3.84284835 C19.0208982,1.52684835 16.9613982,-0.369151654 14.6658982,0.0613483458 L14.6658982,0.0613483458 Z" id="Shape" stroke-linejoin="bevel"></path>
                <path d="M1.26089817,11.6998483 C1.76089817,7.19984835 4.26089817,4.69984835 4.26089817,4.69984835 C5.07889817,5.69984835 6.26089817,8.69984835 7.26089817,11.6998483 M17.2608982,12.1998483 C17.5108982,8.19984835 14.7608982,4.19984835 14.7608982,4.19984835 C13.9428982,5.19984835 11.2608982,6.83884835 11.2608982,9.94984835" id="Shape" stroke-linejoin="round"></path>
            </g>
        </g>
    </g>
</svg>