<?xml version="1.0" encoding="UTF-8"?>
<svg width="25px" height="25px" viewBox="0 0 25 25" version="1.1" xmlns="http://www.w3.org/2000/svg" xmlns:xlink="http://www.w3.org/1999/xlink">
    <title>iconoir:football-ball</title>
    <g id="Page-1" stroke="none" stroke-width="1" fill="none" fill-rule="evenodd">
        <g id="iconoir:football-ball" transform="translate(0.211995, 0.500000)">
            <rect id="ViewBox" x="0" y="0" width="24" height="24"></rect>
            <path d="M4.115,14.015 C3.98018792,15.2317728 3.94573832,16.4575763 4.012,17.68 C4.06542472,18.9322604 5.06871655,19.9351177 6.321,19.988 C7.328,20.04 8.615,20.043 9.985,19.885 M4.115,14.015 C4.394,11.604 5.17,8.93 7.05,7.05 C8.93,5.17 11.604,4.394 14.015,4.115 M4.115,14.015 L9.985,19.885 M9.985,19.885 C12.396,19.606 15.069,18.83 16.95,16.95 C18.83,15.07 19.606,12.396 19.885,9.985 M14.015,4.115 C15.2317728,3.98018792 16.4575763,3.94573832 17.68,4.012 C18.9322604,4.06542472 19.9351177,5.06871655 19.988,6.321 C20.0542158,7.54309118 20.0197662,8.7685587 19.885,9.985 M14.015,4.115 L19.885,9.985 M9.172,14.828 L10.586,13.414 M10.586,13.414 L9.172,12 M10.586,13.414 L12,14.828 M10.586,13.414 L13.414,10.586 M13.414,10.586 L14.828,9.172 M13.414,10.586 L12,9.172 M13.414,10.586 L14.828,12" id="Shape" stroke="#000000" stroke-width="1.5" stroke-linecap="round" stroke-linejoin="round"></path>
        </g>
    </g>
</svg>