<svg width="844" height="559" xmlns="http://www.w3.org/2000/svg"><g fill="#FFED3A" fill-rule="evenodd"><path d="M381.083 388.085c23.772 0 48.11-8.49 73.014-25.47l18.395 19.81h69.335L494 332.051l2.547-2.547 26.885-28.866-31.413-29.998c-6.603 9.433-15.942 19.527-28.017 30.281l-26.885-28.3c12.64-6.415 22.404-13.49 29.29-21.225 6.887-7.735 10.33-17.735 10.33-29.998 0-17.546-6.65-31.602-19.951-42.167-13.301-10.565-28.913-15.848-46.837-15.848-17.923 0-33.441 5.33-46.553 15.99-13.113 10.66-19.669 24.856-19.669 42.591 0 1.698.095 3.396.283 5.094.189 1.698.378 3.207.566 4.528.189 1.32.566 2.783 1.132 4.386a103.876 103.876 0 0 0 1.415 3.821c.378.943.99 2.217 1.84 3.82.849 1.604 1.415 2.736 1.698 3.397.283.66.99 1.745 2.122 3.254 1.132 1.51 1.793 2.5 1.981 2.971.189.472.896 1.51 2.123 3.113 1.226 1.604 1.934 2.5 2.122 2.689l4.528 6.226-5.094 2.264c-14.904 6.603-26.272 14.433-34.101 23.489-7.83 9.056-11.745 21.036-11.745 35.941 0 18.867 6.604 33.771 19.81 44.714 13.207 10.943 29.432 16.414 48.676 16.414Zm31.98-141.217-6.773-7.74-.33-.376-.822-.94c-1.32-1.51-3.113-4.292-5.377-8.349-2.264-4.056-3.396-7.688-3.396-10.895 0-5.094 1.698-9.292 5.094-12.594 3.396-3.301 7.641-4.952 12.735-4.952 5.472 0 9.952 1.934 13.443 5.802 3.49 3.867 5.235 8.537 5.235 14.008 0 10-6.603 18.678-19.81 26.036ZM394.1 338.277c-6.226 0-11.791-1.745-16.697-5.236-4.905-3.49-7.358-8.254-7.358-14.291 0-8.679 6.698-17.169 20.093-25.47l33.677 36.224c-10 5.849-19.904 8.773-29.715 8.773ZM685.495 551.425v-87.447h80.09v87.447h55.467V338.043h-55.468v82.353h-80.089v-82.353h-55.468v213.382z" fill-rule="nonzero"/><path d="M506.515 557.085c24.526 0 44.714-6.698 60.562-20.093 14.716-12.452 22.074-31.602 22.074-57.449 0-16.037-4.623-28.536-13.867-37.498-9.245-8.961-22.169-15.895-38.771-20.8L522.363 417c-4.717-1.51-8.443-2.83-11.179-3.962-2.736-1.132-5.66-3.207-8.773-6.226-3.113-3.019-4.67-6.415-4.67-10.188 0-5.471 2.5-9.81 7.5-13.018 5-3.207 10.424-4.811 16.273-4.811 13.206 0 25.47 4.717 36.79 14.15l22.074-43.016c-9.434-5.283-20.235-9.528-32.404-12.735-12.169-3.207-23.63-4.811-34.384-4.811-21.508 0-39.149 6.556-52.921 19.669-13.773 13.112-20.66 30.422-20.66 51.93 0 10 1.227 18.395 3.68 25.187 2.452 6.792 6.603 12.405 12.452 16.839 5.848 4.433 11.697 7.876 17.546 10.329 5.848 2.453 13.867 5.094 24.055 7.924 3.962 1.132 6.226 1.792 6.792 1.981 17.923 5.283 26.885 12.735 26.885 22.357 0 6.98-2.689 12.31-8.066 15.99-5.377 3.678-11.65 5.518-18.82 5.518-16.036 0-32.45-7.358-49.241-22.074l-23.772 44.714c23.206 16.225 48.204 24.338 74.995 24.338ZM282.82 330.968c20.565 0 39.809 4.575 57.732 13.726 17.923 9.15 32.45 22.215 43.582 39.195 11.131 16.98 16.697 35.941 16.697 56.883 0 34.526-11.084 62.779-33.253 84.758-22.168 21.98-50.42 32.97-84.758 32.97-34.337 0-62.59-10.99-84.759-32.97-22.168-21.98-33.252-50.232-33.252-84.758 0-20.942 5.566-39.903 16.697-56.883 11.131-16.98 25.659-29.998 43.582-39.054 17.923-9.245 37.167-13.867 57.732-13.867Zm0 53.77c-16.414 0-30.564 5.66-42.45 16.98-11.886 11.32-17.83 24.432-17.83 39.337 0 18.112 5.85 33.252 17.547 45.421 11.697 12.17 25.942 18.254 42.733 18.254 16.791 0 31.036-6.084 42.733-18.254 11.697-12.168 17.546-27.309 17.546-45.421 0-14.905-5.943-28.017-17.83-39.337-11.885-11.32-26.035-16.98-42.45-16.98ZM55.163 557.085c23.018 0 40.564-6.698 52.638-20.093 12.075-13.395 18.112-31.696 18.112-54.902V338.043H70.445v147.301c0 1.227-.141 3.444-.424 6.651-.283 3.207-.755 5.566-1.415 7.075-.66 1.51-1.51 3.302-2.547 5.377-1.038 2.075-2.547 3.538-4.528 4.387-1.981.849-4.292 1.273-6.934 1.273-6.037 0-13.49-6.037-22.357-18.112L.261 525.672c13.584 20.942 31.885 31.413 54.902 31.413ZM843.188 213.425v-46.978H777.25v-36.79h62.543V82.679H777.25V47.021h65.94V.043H721.78v213.382zM671 213.425V.043h-55.468v213.382zM535.035 213.425V47.021h45.846V.043h-147.16v46.978h45.846v166.404z" fill-rule="nonzero"/><path d="m354.923.043 80.372 213.382h-3.659c-.872-2.413-2.205-4.613-4-6.602-3.49-3.867-7.97-5.801-13.442-5.801-5.094 0-9.339 1.65-12.735 4.953-2.176 2.115-3.654 4.598-4.436 7.45h-20.875l-13.867-37.073h-76.41l-14.716 37.073H212.29L294.36.043h60.562Zm-30.281 65.939h-.566l-22.923 67.92h46.129l-22.64-67.92Z"/><path fill-rule="nonzero" d="M57.931 213.425v-92.541h.566l71.599 92.541h71.882l-92.541-112.351L194.337.043h-68.769L58.497 88.056h-.566V.043H2.463v213.382z"/></g></svg>