<?xml version="1.0" encoding="UTF-8"?>
<svg width="25px" height="24px" viewBox="0 0 25 24" version="1.1" xmlns="http://www.w3.org/2000/svg" xmlns:xlink="http://www.w3.org/1999/xlink">
    <title>iconoir:short-pants</title>
    <g id="Page-1" stroke="none" stroke-width="1" fill="none" fill-rule="evenodd">
        <g id="iconoir:short-pants" transform="translate(0.461995, 0.000000)">
            <rect id="ViewBox" x="0" y="0" width="24" height="24"></rect>
            <g id="Group" transform="translate(3.057472, 5.000000)" stroke="#000000" stroke-width="1.5">
                <path d="M0.00252841819,0.655000231 C-0.0129437457,0.486924336 0.043093227,0.32010495 0.156896304,0.195454423 C0.270699381,0.0708038956 0.431741948,-0.000147786906 0.600528418,0 L17.2845284,0 C17.4533149,-0.000147786906 17.6143575,0.0708038956 17.7281605,0.195454423 C17.8419636,0.32010495 17.8980006,0.486924336 17.8825284,0.655000231 L16.7065284,13.4550002 C16.6781229,13.7635746 16.4194074,13.9997555 16.1095284,14 L11.9575284,14 C11.6938055,14.0001733 11.4608871,13.8281222 11.3835284,13.5760002 L9.51652842,7.47400023 C9.34252842,6.90800023 8.54252842,6.90800023 8.36852842,7.47400023 L6.50052842,13.5760002 C6.42327817,13.827769 6.19088185,13.9997341 5.92752842,14 L1.77552842,14 C1.46564946,13.9997555 1.2069339,13.7635746 1.17852842,13.4550002 L0.585528418,7 L0.00252841819,0.655000231 Z" id="Path"></path>
                <path d="M0.942528418,4.50000023 L2.44252842,4.50000023 C3.54709792,4.50000023 4.44252842,3.60456973 4.44252842,2.50000023 L4.44252842,2.31131779e-07 M17.4425284,4.50000023 L15.4425284,4.50000023 C14.3379589,4.50000023 13.4425284,3.60456973 13.4425284,2.50000023 L13.4425284,2.31131779e-07" id="Shape"></path>
            </g>
        </g>
    </g>
</svg>