<?xml version="1.0" encoding="UTF-8"?>
<svg width="24px" height="24px" viewBox="0 0 24 24" version="1.1" xmlns="http://www.w3.org/2000/svg" xmlns:xlink="http://www.w3.org/1999/xlink">
    <title>iconoir:sun-light</title>
    <g id="Page-1" stroke="none" stroke-width="1" fill="none" fill-rule="evenodd">
        <g id="iconoir:sun-light" transform="translate(0.211995, 0.000000)">
            <rect id="ViewBox" x="0" y="0" width="24" height="24"></rect>
            <path d="M12,18 C15.3137085,18 18,15.3137085 18,12 C18,8.6862915 15.3137085,6 12,6 C8.6862915,6 6,8.6862915 6,12 C6,15.3137085 8.6862915,18 12,18 Z M22,12 L23,12 M12,2 L12,1 M12,23 L12,22 M20,20 L19,19 M20,4 L19,5 M4,20 L5,19 M4,4 L5,5 M1,12 L2,12" id="Shape" stroke="#000000" stroke-width="1.5" stroke-linecap="round" stroke-linejoin="round"></path>
        </g>
    </g>
</svg>