<?xml version="1.0" encoding="UTF-8"?>
<svg width="25px" height="25px" viewBox="0 0 25 25" version="1.1" xmlns="http://www.w3.org/2000/svg" xmlns:xlink="http://www.w3.org/1999/xlink">
    <title>iconoir:umbrella-full</title>
    <g id="Page-1" stroke="none" stroke-width="1" fill="none" fill-rule="evenodd">
        <g id="iconoir:umbrella-full" transform="translate(0.461995, 0.500000)">
            <rect id="ViewBox" x="0" y="0" width="24" height="24"></rect>
            <g id="Group" transform="translate(1.916667, 1.916667)" stroke="#000000" stroke-width="1.5">
                <path d="M17.2131667,2.78941667 C15.30925,0.990916667 12.7765,0 10.0833333,0 C7.39016667,0 4.85833333,0.99 2.9535,2.78941667 C1.04866667,4.58883333 0,6.98133333 0,9.52508333 C0,9.83308333 0.264916667,10.0833333 0.590333333,10.0833333 C0.916666667,10.0833333 1.18158333,9.83308333 1.18158333,9.52508333 C1.18158333,8.5965 1.98091667,7.84116667 2.96358333,7.84116667 C4.69883333,7.84116667 4.06175,10.0833333 5.33775,10.0833333 C6.61191667,10.0833333 5.97575,7.84116667 7.71008333,7.84116667 C9.44533333,7.84116667 10.0833333,10.0833333 10.0833333,10.0833333 C10.0833333,10.0833333 10.72225,7.84116667 12.4565833,7.84116667 C14.1909167,7.84116667 13.739,10.0833333 14.8298333,10.0833333 C15.9206667,10.0833333 15.4678333,7.84116667 17.2030833,7.84116667 C18.18575,7.84116667 18.9850833,8.5965 18.9850833,9.52508333 C18.9850833,9.83308333 19.25,10.0833333 19.5763333,10.0833333 C19.90175,10.0833333 20.1666667,9.83308333 20.1666667,9.52508333 C20.1666667,6.98133333 19.118,4.58883333 17.2131667,2.78941667 Z" id="Path"></path>
                <path d="M10.0833333,10.0833333 L10.0833333,17.4166667 C10.0833333,21.0833333 4.58333333,21.0833333 4.58333333,17.4166667" id="Path" stroke-linecap="round" stroke-linejoin="round"></path>
            </g>
        </g>
    </g>
</svg>